<svg width="25" height="26" viewBox="0 0 25 26" fill="none" xmlns="http://www.w3.org/2000/svg">
<path d="M22.558 18.3689C22.558 19.9939 22.1086 21.3031 21.211 22.1936C20.3109 23.0854 19.0641 23.5585 17.566 23.5585H7.38144C5.88335 23.5585 4.63534 23.0854 3.73649 22.1936C2.83887 21.2511 2.38696 19.9406 2.38696 18.3156V7.56855C2.38696 5.99555 6.42811 0.91255 7.32573 -0.03125C2.9862 -0.02865 0.0927734 3.01075 0.0927734 7.56855V18.3144C0.0927734 20.5686 0.791059 22.5094 2.18887 23.9238C3.53715 25.2862 5.33363 25.9688 7.38144 25.9688H17.566C19.7116 25.9688 21.5093 25.2342 22.8069 23.9238C24.1552 22.5614 24.8547 20.6218 24.8547 18.3676V7.56855C24.8547 5.36765 24.1552 3.48005 22.8576 2.11765C21.5601 0.70195 19.7104 -0.03125 17.6155 -0.03125H7.32944L3.73649 3.74395C4.58582 2.85215 5.88335 2.38025 7.38144 2.38025H17.6651C19.1632 2.38025 20.4112 2.85215 21.31 3.79725C22.1593 4.73975 22.6571 6.05015 22.6571 7.56985V18.3689H22.558ZM19.0133 7.72585C19.2069 7.7318 19.3996 7.6969 19.5801 7.62324C19.7606 7.54957 19.9251 7.43863 20.064 7.29699C20.2029 7.15535 20.3133 6.98588 20.3887 6.79861C20.4642 6.61135 20.503 6.41011 20.503 6.2068C20.503 6.00349 20.4642 5.80225 20.3887 5.61498C20.3133 5.42772 20.2029 5.25825 20.064 5.11661C19.9251 4.97497 19.7606 4.86403 19.5801 4.79036C19.3996 4.7167 19.2069 4.6818 19.0133 4.68775C18.637 4.69931 18.2797 4.86442 18.0174 5.14804C17.7551 5.43165 17.6083 5.81145 17.6083 6.2068C17.6083 6.60215 17.7551 6.98194 18.0174 7.26556C18.2797 7.54918 18.637 7.71429 19.0133 7.72585ZM12.4737 17.2678C11.3893 17.2627 10.3507 16.8081 9.58396 16.003C8.81717 15.1979 8.38423 14.1074 8.37935 12.9688C8.38423 11.8301 8.81717 10.7396 9.58396 9.93449C10.3507 9.12937 11.3893 8.67478 12.4737 8.66965C13.5581 8.67478 14.5967 9.12937 15.3635 9.93449C16.1303 10.7396 16.5632 11.8301 16.5681 12.9688C16.5629 14.1071 16.1298 15.1973 15.3631 16.0022C14.5963 16.807 13.5579 17.2614 12.4737 17.2665V17.2678ZM12.4737 6.25945C8.97982 6.25945 6.08392 9.24685 6.08392 12.9688C6.08163 13.8505 6.24535 14.724 6.56565 15.5391C6.88596 16.3542 7.35654 17.0948 7.95035 17.7183C8.54415 18.3418 9.24947 18.8359 10.0257 19.1722C10.802 19.5085 11.634 19.6805 12.4737 19.678C16.0184 19.678 18.8623 16.6373 18.8623 12.97C18.8623 9.29885 15.9676 6.25945 12.4737 6.25945Z" fill="white"/>
</svg>
