<svg width="129" height="41" viewBox="0 0 129 41" fill="none" xmlns="http://www.w3.org/2000/svg">
<g clip-path="url(#clip0_1_174)">
<path d="M94.2501 33.2301C91.0771 33.2301 88.6031 31.9231 87.0161 29.5421V32.7621H80.4341V0.663086H87.0161V13.0641C88.6031 10.6841 91.0761 9.37609 94.2511 9.37609C100.179 9.37609 104.894 14.6981 104.894 21.2791C104.894 27.8611 100.179 33.2291 94.2511 33.2291L94.2501 33.2301ZM92.7571 15.6321C89.5361 15.6321 87.0161 18.1051 87.0161 21.2791C87.0161 24.5011 89.5361 26.9271 92.7561 26.9271C95.9321 26.9271 98.4991 24.4541 98.4991 21.2791C98.4991 18.1521 95.9321 15.6321 92.7571 15.6321Z" fill="#FCFCFA"/>
<path d="M128.078 9.84277L115.334 40.3718H108.286L112.533 30.8958L103.711 9.84277H110.806L115.894 23.2398L120.984 9.84277H128.078Z" fill="#FCFCFA"/>
<path d="M77.395 32.7631H70.813V0.663086H77.395V32.7631Z" fill="#FCFCFA"/>
<path d="M68.1938 32.763H61.9858V29.916C60.6318 32.156 58.4848 33.23 55.4508 33.23C51.3898 33.23 48.3548 30.196 48.3548 26.368C48.3548 21.56 52.6028 19.038 59.0448 19.038H61.9848V18.525C61.9848 16.471 60.2118 14.743 57.5978 14.743C55.1238 14.743 52.6968 16.098 51.4358 17.685L47.8418 13.857C49.8488 11.242 53.7698 9.375 57.5978 9.375C64.0868 9.375 68.1938 13.157 68.1938 18.665V32.763ZM61.9858 23.147H58.7178C55.8238 23.147 54.0968 24.034 54.0968 25.761C54.0968 27.161 55.2168 28.095 56.9908 28.095C59.8848 28.095 61.9858 26.135 61.9858 23.847V23.147Z" fill="#FCFCFA"/>
<path d="M46.0169 19.7861V32.7631H39.4349V20.6261C39.4349 17.6391 37.6149 15.6781 34.9069 15.6781C32.1529 15.6781 30.3789 17.6391 30.3789 20.6261V32.7631H23.7969V0.663086H30.3789V12.8311C31.8259 10.6371 33.9729 9.37609 36.5889 9.37609C42.4689 9.37609 46.0169 13.2981 46.0169 19.7861Z" fill="#FCFCFA"/>
<path d="M21.2102 32.4831C20.3702 32.9031 19.0622 33.1361 17.8482 33.1361C12.4802 33.1361 8.69922 29.7281 8.69922 23.8001V0.663086H15.2812V9.84309H20.9292V16.0981H15.2812V23.4731C15.2812 25.6211 16.9142 26.9741 18.8282 26.9741C19.4822 26.9741 20.3692 26.8351 20.8822 26.6481L21.2102 32.4831Z" fill="#FCFCFA"/>
<path d="M7.43512 12.97C7.43518 13.4421 7.34226 13.9096 7.16166 14.3458C6.98105 14.782 6.7163 15.1783 6.38252 15.5122C6.04874 15.846 5.65247 16.1109 5.21633 16.2916C4.78019 16.4724 4.31272 16.5654 3.84062 16.5655C3.36852 16.5655 2.90102 16.4726 2.46483 16.292C2.02864 16.1114 1.63229 15.8467 1.29842 15.5129C0.964549 15.1791 0.699688 14.7828 0.518962 14.3467C0.338235 13.9105 0.245183 13.4431 0.245117 12.971C0.245117 12.0175 0.623875 11.1031 1.29807 10.4289C1.97226 9.75473 2.88666 9.37598 3.84012 9.37598C4.79357 9.37598 5.70797 9.75473 6.38217 10.4289C7.05636 11.1031 7.43512 12.0175 7.43512 12.971V12.97Z" fill="#CCCC33"/>
</g>
<defs>
<clipPath id="clip0_1_174">
<rect width="129" height="41" fill="white"/>
</clipPath>
</defs>
</svg>
