<svg width="26" height="26" viewBox="0 0 26 26" fill="none" xmlns="http://www.w3.org/2000/svg">
<path d="M26.0001 3.07694C25.0456 3.60194 24.0149 3.95174 22.9386 4.10794C24.0403 3.29564 24.8831 2.00844 25.2843 0.477441C24.2535 1.22724 23.1112 1.77714 21.8978 2.07084C20.9228 0.795941 19.5366 0.00244141 18.0035 0.00244141C15.0588 0.00244141 12.6726 2.93944 12.6726 6.56364C12.6726 7.07604 12.7183 7.57594 12.8096 8.05714C8.37728 7.78214 4.44771 5.17014 1.81764 1.19594C1.36069 2.16464 1.09671 3.29564 1.09671 4.49534C1.09671 6.76994 2.03596 8.78204 3.46775 9.95684C2.59431 9.92544 1.7719 9.62554 1.05097 9.13814V9.21934C1.05097 12.3999 2.88884 15.0556 5.33098 15.6555C4.8841 15.8055 4.41204 15.8867 3.92454 15.8867C3.57939 15.8867 3.24935 15.8429 2.91931 15.7679C3.5997 18.3736 5.56969 20.2733 7.89994 20.3295C6.07222 22.0917 3.77731 23.1415 1.27433 23.1415C0.842888 23.1415 0.421363 23.1102 0 23.0477C2.366 24.9161 5.16856 25.9971 8.17928 25.9971C17.9883 25.9971 23.3548 15.9928 23.3548 7.31954C23.3548 7.03214 23.3497 6.75094 23.3396 6.46974C24.3804 5.55134 25.2843 4.39534 26.0001 3.07694Z" fill="white"/>
</svg>
